<svg xmlns="http://www.w3.org/2000/svg" xmlns:xlink="http://www.w3.org/1999/xlink" width="1200" zoomAndPan="magnify" viewBox="0 0 900 561.000005" height="748" preserveAspectRatio="xMidYMid meet" version="1.0"><path fill="currentColor" d="M 142.667969 53.15625 C 75.511719 60.792969 20.5625 117.167969 5.738281 193.679688 C 2.742188 209.253906 1.996094 217.261719 1.996094 234.707031 C 1.996094 252.152344 2.742188 260.160156 5.738281 275.734375 C 23.554688 367.894531 98.945312 428.535156 178.605469 414.761719 C 237.226562 404.578125 286.261719 354.71875 303.257812 287.863281 C 307.449219 271.464844 310.667969 247.734375 310.144531 237.925781 L 309.847656 233.734375 L 300.5625 230.515625 C 295.472656 228.792969 291.429688 227.21875 291.578125 227.070312 C 291.726562 226.921875 295.847656 227.292969 300.710938 227.894531 C 305.578125 228.566406 314.113281 229.089844 319.726562 229.015625 L 329.835938 228.941406 L 324.96875 227.894531 C 322.273438 227.292969 317.707031 226.320312 314.710938 225.722656 L 309.320312 224.523438 L 309.097656 219.132812 L 308.871094 213.742188 L 300.488281 210.824219 C 295.847656 209.175781 292.175781 207.753906 292.328125 207.605469 C 292.476562 207.457031 297.417969 207.828125 303.332031 208.429688 C 309.246094 209.027344 318.15625 209.703125 323.097656 210 C 328.039062 210.226562 334.101562 210.601562 336.574219 210.75 C 340.542969 211.046875 339.71875 210.75 329.085938 207.457031 C 322.5 205.507812 315.160156 203.261719 312.839844 202.589844 C 308.949219 201.464844 308.5 201.167969 308.5 199.292969 C 308.5 198.171875 308.199219 196.898438 307.898438 196.449219 C 307.601562 196 303.40625 194.203125 298.539062 192.480469 C 293.675781 190.683594 289.855469 189.113281 289.929688 188.964844 C 290.082031 188.8125 302.285156 190.234375 317.109375 192.03125 C 331.855469 193.90625 344.058594 195.253906 344.132812 195.175781 C 344.210938 195.101562 330.808594 190.3125 314.261719 184.621094 C 297.71875 178.855469 275.632812 171.070312 265.152344 167.25 L 246.210938 160.363281 L 188.9375 164.332031 C 157.417969 166.578125 131.589844 168.449219 131.4375 168.597656 C 131.363281 168.75 132.039062 174.214844 133.011719 180.800781 C 133.984375 187.390625 134.808594 193.230469 134.808594 193.679688 C 134.808594 194.429688 143.269531 194.652344 174.710938 194.652344 L 214.691406 194.652344 L 216.335938 201.914062 C 217.386719 206.480469 219.558594 224.152344 222.101562 248.929688 C 224.347656 270.71875 226.144531 288.835938 226.144531 289.132812 C 226.144531 290.03125 227.117188 289.808594 228.539062 288.683594 C 229.664062 287.863281 230.863281 279.328125 236.253906 231.710938 C 239.769531 200.941406 242.617188 175.039062 242.617188 174.214844 C 242.617188 173.390625 242.765625 172.867188 242.988281 173.089844 C 243.289062 173.316406 242.617188 184.472656 241.492188 197.871094 C 240.445312 211.347656 239.621094 223.101562 239.621094 224.152344 C 239.621094 225.871094 240.292969 226.097656 255.71875 229.914062 C 264.550781 232.085938 271.589844 234.03125 271.4375 234.183594 C 271.289062 234.332031 264.027344 234.109375 255.34375 233.582031 C 246.660156 233.058594 239.394531 232.761719 239.246094 232.984375 C 239.023438 233.132812 238.574219 237.703125 238.125 243.015625 C 237.75 248.332031 237.226562 254.320312 237 256.34375 L 236.550781 259.9375 L 252.273438 259.710938 C 260.882812 259.5625 267.546875 259.636719 267.097656 259.863281 C 266.574219 260.160156 261.632812 261.285156 256.089844 262.40625 C 250.550781 263.53125 243.738281 264.878906 241.042969 265.476562 L 236.101562 266.601562 L 235.128906 280.074219 C 234.605469 287.488281 234.304688 293.625 234.457031 293.777344 C 234.605469 293.925781 241.640625 291.53125 250.027344 288.460938 C 258.414062 285.464844 265.375 283.070312 265.523438 283.21875 C 266.050781 283.667969 260.734375 296.996094 257.289062 303.734375 C 249.804688 318.707031 242.316406 329.113281 231.011719 340.269531 C 214.390625 356.664062 194.402344 367.21875 172.691406 370.964844 C 158.765625 373.359375 140.648438 372.085938 126.574219 367.894531 C 71.023438 351.050781 33.289062 286.589844 39.800781 219.660156 C 43.246094 184.320312 56.722656 154 79.332031 130.71875 C 96.175781 113.496094 114.742188 102.941406 136.679688 98.375 C 146.5625 96.277344 167.75 96.429688 177.109375 98.675781 C 193.726562 102.640625 207.878906 109.304688 220.679688 119.335938 L 226.144531 123.605469 L 250.851562 123.378906 C 264.476562 123.304688 276.007812 123.003906 276.457031 122.707031 C 278.175781 121.582031 263.429688 103.089844 252.796875 92.984375 C 231.011719 72.472656 205.632812 59.371094 178.230469 54.578125 C 168.273438 52.855469 151.351562 52.183594 142.667969 53.15625 Z M 142.667969 53.15625 " fill-opacity="1" fill-rule="nonzero"/><path fill="currentColor" d="M 374.457031 189.414062 C 367.941406 190.761719 361.355469 196.226562 357.835938 203.039062 C 356.9375 204.835938 353.867188 211.796875 351.097656 218.609375 L 346.082031 230.964844 L 338.296875 231.488281 C 326.765625 232.160156 321.675781 233.808594 316.882812 238.375 C 313.589844 241.371094 312.316406 243.988281 311.492188 248.855469 C 310.667969 254.023438 311.71875 258.8125 314.335938 261.582031 C 316.882812 264.277344 318.753906 265.027344 325.792969 266.074219 L 331.480469 266.898438 L 325.195312 282.246094 C 321.675781 290.707031 316.359375 303.582031 313.363281 310.921875 C 310.296875 318.257812 307.449219 326.269531 307 328.738281 C 305.203125 338.695312 309.472656 347.15625 318.230469 351.050781 C 323.621094 353.445312 330.210938 354.117188 347.804688 354.117188 C 367.117188 354.117188 372.285156 353.445312 378.871094 350.152344 C 384.636719 347.304688 387.484375 343.636719 388.753906 337.5 C 390.328125 329.789062 386.808594 323.5 379.546875 321.175781 C 377.601562 320.578125 370.9375 319.980469 363.449219 319.753906 L 350.574219 319.304688 L 361.277344 293.101562 L 371.984375 266.898438 L 382.015625 266.449219 C 387.484375 266.152344 392.050781 266 392.050781 266.074219 C 392.125 266.074219 391.152344 268.695312 389.953125 271.765625 C 386.808594 279.550781 386.359375 285.617188 388.605469 289.660156 C 390.777344 293.476562 394.59375 296.171875 399.460938 297.21875 C 404.175781 298.269531 407.847656 297.667969 412.039062 294.972656 C 417.128906 291.753906 419.898438 287.261719 426.039062 272.289062 L 428.433594 266.523438 L 445.652344 266.523438 L 441.609375 271.167969 C 430.53125 283.894531 423.867188 295.050781 421.921875 304.480469 C 416.832031 328.363281 429.558594 349.925781 450.746094 353.296875 C 457.035156 354.34375 490.125 354.34375 496.339844 353.296875 C 505.621094 351.796875 512.058594 347.53125 514.679688 341.242188 L 515.878906 338.472656 L 519.773438 342.589844 C 524.1875 347.304688 527.855469 349.625 534.296875 351.949219 C 538.039062 353.296875 540.882812 353.59375 552.5625 353.894531 C 570.90625 354.417969 576.222656 353.070312 585.730469 345.734375 L 588.5 343.488281 L 591.867188 347.230469 C 597.332031 353.296875 599.28125 353.746094 618.820312 353.746094 C 632.59375 353.746094 636.113281 353.519531 640.382812 352.320312 C 644.875 351.125 645.621094 351.050781 646.746094 352.097656 C 651.613281 356.363281 660.59375 357.261719 667.707031 354.195312 C 672.351562 352.097656 678.5625 345.734375 681.257812 340.195312 C 682.308594 338.171875 688.070312 324.472656 694.0625 309.796875 C 700.125 295.125 706.1875 281.199219 707.613281 278.804688 C 711.207031 272.8125 716.519531 267.574219 721.164062 265.402344 C 731.71875 260.460938 743.25 265.703125 741.601562 274.609375 C 741.300781 276.183594 736.882812 287.785156 731.71875 300.515625 C 726.628906 313.242188 721.984375 325.667969 721.386719 328.289062 C 719.664062 336.75 721.6875 343.1875 727.902344 348.429688 C 733.515625 353.296875 735.535156 353.59375 758.296875 353.96875 C 779.558594 354.269531 786.894531 353.667969 792.359375 351.273438 C 795.28125 350 795.503906 350 798.199219 351.347656 C 803.140625 353.746094 810.105469 354.269531 833.613281 353.96875 C 855.472656 353.59375 856.371094 353.519531 862.886719 351.574219 C 872.46875 348.652344 878.382812 345.136719 885.417969 338.097656 C 895.226562 328.214844 899.046875 318.183594 898.222656 304.03125 C 897.546875 291.15625 893.730469 282.398438 881.601562 265.402344 C 872.09375 252.152344 871.195312 250.652344 869.324219 245.039062 C 867.527344 239.722656 867.378906 235.828125 868.648438 227.21875 C 869.472656 221.378906 869.472656 221.007812 867.675781 217.863281 C 861.988281 207.53125 848.359375 207.230469 839.675781 217.261719 C 837.054688 220.257812 811.453125 270.792969 809.429688 276.929688 C 808.234375 280.601562 808.382812 286.515625 809.804688 289.507812 C 811.527344 293.101562 816.917969 296.921875 821.632812 298.042969 C 831.816406 300.289062 840.425781 294.300781 846.039062 280.972656 C 847.164062 278.355469 848.210938 276.03125 848.511719 275.808594 C 849.257812 275.058594 858.542969 294.601562 859.589844 299.015625 C 860.339844 302.3125 860.339844 304.109375 859.664062 307.027344 C 858.394531 312.269531 856.445312 314.738281 851.429688 317.210938 C 847.238281 319.304688 846.9375 319.304688 828.820312 319.753906 C 810.925781 320.203125 805.6875 320.953125 801.945312 323.347656 C 801.269531 323.796875 799.921875 323.574219 798.125 322.601562 C 794.082031 320.503906 787.945312 319.679688 775.890625 319.679688 C 769.976562 319.679688 765.183594 319.457031 765.183594 319.082031 C 765.183594 318.78125 769.375 308.152344 774.542969 295.5 C 784.5 270.71875 786.597656 263.679688 785.773438 256.792969 C 784.050781 242.792969 772.96875 232.085938 757.773438 229.765625 C 746.394531 228.042969 733.140625 231.785156 721.6875 239.949219 L 718.242188 242.417969 L 715.699219 238.972656 C 712.027344 234.03125 707.238281 231.710938 700.5 231.785156 C 697.578125 231.785156 693.910156 232.234375 692.265625 232.761719 C 689.195312 233.808594 684.554688 237.625 682.007812 241.21875 C 681.109375 242.417969 673.25 260.910156 664.488281 282.320312 C 655.65625 303.808594 648.316406 321.476562 648.167969 321.625 C 648.019531 321.851562 646.894531 321.550781 645.695312 321.101562 C 644.5 320.578125 637.761719 320.054688 630.574219 319.828125 C 621.441406 319.605469 617.695312 319.230469 617.921875 318.632812 C 638.808594 267.199219 644.050781 254.023438 644.796875 250.804688 C 646.445312 243.765625 643.675781 237.476562 637.3125 233.808594 C 634.390625 232.085938 632.96875 231.785156 628.550781 231.785156 C 621.664062 231.785156 615.75 234.40625 610.808594 239.648438 L 607.289062 243.390625 L 605.570312 240.996094 C 602.875 237.328125 596.136719 232.910156 590.371094 231.113281 C 583.109375 228.867188 571.054688 228.867188 562.820312 231.1875 C 539.085938 237.851562 517.300781 261.359375 510.039062 288.085938 C 508.316406 294.601562 508.09375 296.769531 508.09375 308.523438 L 508.019531 321.703125 L 505.773438 320.953125 C 504.574219 320.578125 495.515625 320.054688 485.78125 319.753906 C 469.460938 319.304688 467.890625 319.15625 466.015625 317.734375 C 461.75 314.589844 460.851562 312.566406 460.851562 306.355469 C 460.925781 301.414062 461.226562 299.992188 463.246094 296.097656 C 466.691406 289.507812 471.78125 282.847656 480.09375 274.3125 L 487.355469 266.824219 L 493.71875 265.925781 C 501.652344 264.878906 506.894531 262.707031 510.1875 259.039062 C 513.257812 255.667969 514.382812 252.074219 514.382812 246.085938 C 514.382812 240.996094 513.109375 238.074219 509.738281 235.605469 C 504.875 232.011719 503.601562 231.863281 474.179688 231.414062 C 450.820312 231.039062 446.101562 230.8125 445.203125 229.839844 C 444.53125 229.242188 443.257812 225.945312 442.285156 222.503906 C 439.515625 213.144531 435.996094 210.074219 427.535156 210.074219 C 421.921875 210.074219 419.152344 211.273438 415.183594 215.390625 C 412.710938 217.9375 409.042969 224.601562 406.273438 231.488281 L 405.226562 234.183594 L 402.082031 233.132812 C 400.359375 232.535156 396.015625 231.863281 392.421875 231.5625 L 385.835938 231.113281 L 389.804688 222.804688 C 395.792969 210.226562 397.140625 203.9375 394.96875 198.546875 C 391.824219 191.210938 383.589844 187.539062 374.457031 189.414062 Z M 589.171875 263.753906 C 593.664062 266.75 595.011719 269.96875 593.964844 274.984375 C 592.917969 279.925781 581.011719 309.125 578.46875 312.941406 C 577.34375 314.664062 575.097656 316.535156 572.703125 317.734375 C 569.257812 319.457031 567.835938 319.679688 561.546875 319.679688 C 555.257812 319.679688 553.984375 319.457031 551.816406 317.957031 C 548.070312 315.488281 546.648438 313.09375 545.75 307.925781 C 543.730469 296.546875 549.269531 282.097656 559.75 271.316406 C 567.085938 263.753906 572.628906 261.132812 580.714844 261.507812 C 585.054688 261.660156 586.550781 262.03125 589.171875 263.753906 Z M 589.171875 263.753906 " fill-opacity="1" fill-rule="nonzero"/><path fill="currentColor" d="M 105.386719 202.964844 C 98.273438 204.683594 92.65625 209.625 89.363281 216.964844 C 87.117188 222.128906 82.925781 239.050781 80.902344 251.550781 C 79.632812 259.710938 77.984375 277.378906 77.910156 284.117188 C 77.910156 285.914062 77.386719 286.589844 75.4375 287.488281 L 73.042969 288.609375 L 73.042969 297.371094 C 73.042969 305.007812 73.265625 306.355469 74.613281 308.152344 C 76.636719 310.921875 80.230469 312.644531 86.742188 314.066406 C 100.21875 316.835938 109.054688 317.582031 135.707031 317.957031 C 160.710938 318.332031 166.777344 318.03125 173.4375 316.234375 C 174.785156 315.863281 175.085938 316.234375 175.460938 318.78125 C 176.433594 324.398438 181.074219 328.066406 189.085938 329.261719 C 200.617188 331.132812 206.753906 326.117188 208.027344 313.765625 L 208.550781 308.300781 L 215.214844 305.605469 L 221.804688 302.984375 L 221.355469 293.550781 C 219.632812 260.535156 213.941406 218.460938 210.199219 211.199219 C 208.777344 208.355469 207.652344 207.304688 203.386719 205.132812 L 198.21875 202.515625 L 153.226562 202.363281 C 128.371094 202.289062 106.957031 202.589844 105.386719 202.964844 Z M 114.59375 224.375 L 114.59375 240.695312 L 107.03125 245.113281 C 102.914062 247.507812 99.695312 249.605469 99.769531 249.679688 C 99.921875 249.753906 111.675781 250.128906 125.972656 250.429688 L 151.953125 250.953125 L 152.851562 247.507812 C 153.675781 244.289062 153.898438 244.066406 158.316406 242.417969 L 162.882812 240.621094 L 163.105469 236.429688 L 163.332031 232.234375 L 159.8125 231.039062 C 157.867188 230.363281 155.996094 229.839844 155.621094 229.839844 C 155.320312 229.839844 153.824219 232.160156 152.402344 235.082031 L 149.78125 240.320312 L 140.871094 240.320312 L 136.230469 232.085938 L 130.464844 232.085938 C 125.375 232.085938 124.550781 232.3125 122.753906 234.03125 L 120.65625 235.980469 L 120.285156 233.507812 C 120.058594 232.085938 119.757812 227.21875 119.460938 222.726562 C 119.234375 218.160156 118.859375 213.070312 118.636719 211.273438 L 118.113281 208.128906 L 140.125 208.128906 C 163.105469 208.203125 163.632812 208.277344 165.277344 211.496094 C 165.726562 212.320312 166.328125 219.957031 166.550781 228.492188 L 167.074219 244.066406 L 157.566406 244.066406 L 155.84375 248.929688 C 154.496094 252.601562 153.75 253.796875 152.699219 253.796875 C 147.535156 253.796875 87.117188 251.476562 86.445312 251.253906 C 84.347656 250.503906 89.8125 225.273438 94.15625 215.464844 C 96.925781 209.253906 98.945312 208.128906 107.707031 208.128906 L 114.59375 208.128906 Z M 190.507812 210 C 195.597656 210.601562 198.144531 212.546875 198.742188 216.4375 C 199.269531 219.808594 199.640625 241.070312 199.191406 241.070312 C 198.96875 241.070312 196.796875 241.371094 194.402344 241.820312 C 189.460938 242.640625 187.886719 243.765625 183.695312 249.828125 C 181.226562 253.421875 180.699219 253.796875 178.082031 253.796875 L 175.234375 253.796875 L 175.234375 215.015625 L 177.183594 212.695312 C 179.054688 210.449219 182.796875 208.804688 184.96875 209.253906 C 185.566406 209.402344 188.039062 209.703125 190.507812 210 Z M 177.03125 265.101562 L 176.507812 270.417969 L 180.175781 269.96875 C 182.199219 269.746094 188.261719 269.21875 193.578125 268.769531 C 198.96875 268.320312 204.285156 267.796875 205.480469 267.648438 C 206.679688 267.421875 207.503906 267.421875 207.277344 267.722656 C 207.054688 267.949219 200.015625 269.746094 191.632812 271.765625 C 183.320312 273.785156 176.210938 275.882812 175.984375 276.332031 C 175.683594 276.78125 175.011719 281.347656 174.488281 286.4375 C 173.964844 291.605469 173.363281 295.574219 173.214844 295.421875 C 172.839844 295.050781 174.414062 262.257812 174.9375 260.683594 C 175.085938 260.234375 175.761719 259.785156 176.359375 259.785156 C 177.40625 259.785156 177.480469 260.535156 177.03125 265.101562 Z M 92.359375 273.113281 C 94.082031 274.683594 94.230469 282.621094 92.433594 283.296875 C 90.335938 284.117188 81.953125 283.746094 81.054688 282.847656 C 80.53125 282.320312 80.15625 279.703125 80.15625 276.40625 L 80.15625 270.941406 L 85.621094 271.464844 C 88.691406 271.765625 91.535156 272.4375 92.359375 273.113281 Z M 115.34375 274.386719 C 123.800781 274.984375 131.140625 275.507812 131.664062 275.507812 C 132.113281 275.507812 132.5625 276.257812 132.5625 277.082031 C 132.5625 278.652344 132.414062 278.652344 121.929688 278.203125 C 116.015625 277.980469 108.082031 277.53125 104.335938 277.304688 C 97.597656 276.855469 97.375 276.78125 97.375 275.058594 C 97.375 272.964844 95.800781 272.964844 115.34375 274.386719 Z M 159.738281 275.132812 C 161.011719 276.929688 161.011719 277.007812 158.988281 277.457031 C 152.476562 278.878906 152.402344 279.101562 157.941406 279.175781 C 164.003906 279.253906 163.929688 279.175781 161.761719 284.867188 L 161.011719 286.738281 L 150.15625 286.738281 C 144.015625 286.738281 138.550781 286.363281 137.726562 285.988281 C 136.53125 285.316406 136.304688 284.34375 136.304688 280.226562 C 136.304688 273.488281 136.605469 273.335938 148.65625 273.335938 C 158.089844 273.335938 158.464844 273.335938 159.738281 275.132812 Z M 115.34375 280.75 C 131.8125 281.796875 132.5625 281.949219 132.5625 283.894531 C 132.5625 285.316406 132.261719 285.390625 127.171875 284.941406 C 124.175781 284.71875 116.242188 284.34375 109.578125 284.042969 C 97.375 283.519531 97.375 283.519531 97.375 281.796875 C 97.375 279.625 97.375 279.625 115.34375 280.75 Z M 202.785156 285.691406 C 204.507812 286.886719 207.429688 291.90625 207.429688 293.625 C 207.429688 294.074219 206.457031 292.953125 205.183594 291.007812 C 202.414062 286.664062 200.242188 285.691406 195.824219 286.8125 C 191.183594 288.011719 187.066406 291.753906 184.667969 297.144531 C 183.546875 299.691406 182.496094 301.710938 182.421875 301.710938 C 181.675781 301.710938 183.695312 294.449219 184.894531 292.429688 C 189.085938 285.765625 198.070312 282.320312 202.785156 285.691406 Z M 82.175781 291.15625 C 89.738281 292.578125 106.582031 294.226562 126.199219 295.347656 C 152.777344 296.847656 153.972656 297.21875 131.8125 296.769531 C 99.246094 296.171875 82.027344 294.601562 76.636719 291.679688 L 74.539062 290.558594 L 76.488281 290.480469 C 77.609375 290.480469 80.082031 290.78125 82.175781 291.15625 Z M 203.460938 296.246094 C 204.582031 297.96875 204.808594 299.992188 204.808594 308.152344 C 204.808594 317.058594 204.660156 318.257812 203.234375 320.203125 C 199.269531 325.519531 195.074219 320.652344 195.148438 310.695312 C 195.148438 301.335938 197.769531 294.226562 201.066406 294.226562 C 201.664062 294.226562 202.785156 295.125 203.460938 296.246094 Z M 208.175781 298.71875 C 208.175781 299.542969 208.027344 300.214844 207.878906 300.214844 C 207.726562 300.214844 207.429688 299.542969 207.203125 298.71875 C 206.980469 297.894531 207.128906 297.21875 207.503906 297.21875 C 207.878906 297.21875 208.175781 297.894531 208.175781 298.71875 Z M 208.175781 298.71875 " fill-opacity="1" fill-rule="nonzero"/><path fill="currentColor" d="M 181.226562 232.085938 C 181.226562 234.78125 181.074219 235.082031 179.351562 235.082031 C 177.480469 235.082031 177.480469 235.082031 177.480469 242.191406 C 177.480469 249.15625 177.558594 249.304688 179.203125 249.304688 C 180.476562 249.304688 181.75 248.183594 183.921875 244.964844 L 186.839844 240.695312 L 191.558594 240.472656 L 196.199219 240.246094 L 196.199219 237.703125 C 196.199219 235.304688 195.972656 235.082031 194.027344 235.082031 C 192.15625 235.082031 191.855469 234.78125 191.40625 232.085938 L 190.957031 229.089844 L 181.226562 229.089844 Z M 181.226562 232.085938 " fill-opacity="1" fill-rule="nonzero"/><path fill="currentColor" d="M 87.640625 317.957031 C 87.640625 319.457031 90.785156 322.675781 93.929688 324.546875 C 100.96875 328.664062 109.800781 328.589844 113.097656 324.398438 C 115.566406 321.253906 114.820312 319.378906 110.851562 318.855469 C 103.738281 317.808594 87.640625 317.210938 87.640625 317.957031 Z M 87.640625 317.957031 " fill-opacity="1" fill-rule="nonzero"/><path fill="currentColor" d="M 798.125 357.488281 C 798.125 360.632812 799.699219 363.027344 802.394531 363.925781 C 807.785156 365.648438 813.097656 362.578125 813.097656 357.789062 C 813.097656 355.839844 812.800781 355.617188 810.851562 355.617188 C 809.128906 355.617188 808.382812 356.066406 807.859375 357.488281 C 807.410156 358.609375 806.585938 359.359375 805.613281 359.359375 C 804.640625 359.359375 803.816406 358.609375 803.367188 357.488281 C 802.84375 356.066406 802.09375 355.617188 800.371094 355.617188 C 798.5 355.617188 798.125 355.914062 798.125 357.488281 Z M 798.125 357.488281 " fill-opacity="1" fill-rule="nonzero"/><path fill="currentColor" d="M 709.484375 357.5625 C 707.835938 359.136719 707.984375 361.304688 709.78125 363.101562 C 711.429688 364.75 713.226562 364.972656 715.996094 363.925781 C 718.46875 362.953125 719.214844 360.484375 717.71875 358.238281 C 716.746094 356.738281 715.847656 356.363281 713.527344 356.363281 C 711.878906 356.363281 710.15625 356.890625 709.484375 357.5625 Z M 709.484375 357.5625 " fill-opacity="1" fill-rule="nonzero"/><path fill="currentColor" d="M 761.890625 357.5625 C 760.242188 359.136719 760.394531 361.304688 762.191406 363.101562 C 763.835938 364.75 765.632812 364.972656 768.402344 363.925781 C 770.875 362.953125 771.621094 360.484375 770.125 358.238281 C 769.152344 356.738281 768.253906 356.363281 765.933594 356.363281 C 764.285156 356.363281 762.5625 356.890625 761.890625 357.5625 Z M 761.890625 357.5625 " fill-opacity="1" fill-rule="nonzero"/><path fill="currentColor" d="M 599.355469 358.160156 C 593.964844 360.558594 592.46875 365.648438 595.460938 371.5625 L 597.257812 375.082031 L 595.164062 376.355469 C 592.46875 378 590.746094 381.519531 590.746094 385.5625 C 590.746094 392.300781 594.636719 395.59375 602.722656 395.667969 C 606.542969 395.667969 608.265625 395.21875 610.808594 393.796875 L 613.953125 392 L 615.152344 393.648438 C 616.050781 394.996094 617.023438 395.296875 620.019531 395.296875 C 622.039062 395.296875 623.6875 395.070312 623.6875 394.695312 C 623.6875 394.398438 622.714844 392.523438 621.515625 390.429688 L 619.417969 386.761719 L 620.765625 383.691406 C 621.515625 382.042969 622.1875 379.796875 622.1875 378.601562 C 622.1875 376.726562 621.964844 376.578125 618.894531 376.578125 C 615.824219 376.578125 615.601562 376.726562 615.152344 378.972656 L 614.703125 381.371094 L 611.933594 378.675781 L 609.164062 375.90625 L 611.183594 374.332031 C 615.601562 370.8125 616.648438 364.300781 613.429688 360.707031 C 610.433594 357.339844 603.921875 356.140625 599.355469 358.160156 Z M 607.214844 364.601562 C 609.011719 368.042969 605.121094 373.136719 602.949219 370.140625 C 601.675781 368.417969 601.675781 364.074219 602.949219 363.625 C 604.894531 362.804688 606.46875 363.175781 607.214844 364.601562 Z M 605.867188 383.09375 C 607.816406 385.039062 609.460938 386.835938 609.460938 387.136719 C 609.460938 387.808594 605.195312 389.304688 603.398438 389.304688 C 601.449219 389.304688 598.980469 386.6875 598.980469 384.589844 C 598.980469 382.941406 600.851562 379.574219 601.824219 379.574219 C 602.050781 379.574219 603.921875 381.144531 605.867188 383.09375 Z M 605.867188 383.09375 " fill-opacity="1" fill-rule="nonzero"/><path fill="currentColor" d="M 373.78125 361.378906 L 374.007812 364.972656 L 378.273438 365.199219 L 382.617188 365.421875 L 382.765625 380.171875 L 382.992188 394.921875 L 387.332031 395.144531 L 391.601562 395.371094 L 391.601562 365.347656 L 400.660156 365.347656 L 400.433594 361.753906 L 400.210938 358.238281 L 386.882812 358.011719 L 373.558594 357.863281 Z M 373.78125 361.378906 " fill-opacity="1" fill-rule="nonzero"/><path fill="currentColor" d="M 633.417969 375.679688 C 633.417969 388.558594 633.644531 393.722656 634.316406 394.398438 C 634.917969 394.996094 638.433594 395.296875 645.171875 395.296875 L 655.128906 395.296875 L 655.128906 387.808594 L 643.152344 387.808594 L 643.003906 372.984375 L 642.777344 358.238281 L 638.136719 358.011719 L 633.417969 357.789062 Z M 633.417969 375.679688 " fill-opacity="1" fill-rule="nonzero"/><path fill="currentColor" d="M 567.535156 362.503906 C 567.535156 365.722656 566.636719 367.59375 565.214844 367.59375 C 564.019531 367.59375 563.792969 368.195312 563.792969 370.664062 C 563.792969 373.058594 564.09375 373.808594 565.289062 374.109375 C 566.636719 374.484375 566.789062 375.15625 566.789062 382.117188 C 566.789062 386.609375 567.164062 390.429688 567.761719 391.550781 C 569.257812 394.546875 573.601562 396.269531 578.019531 395.667969 L 581.761719 395.144531 L 581.761719 392.226562 C 581.761719 389.53125 581.613281 389.304688 579.664062 389.304688 C 576.296875 389.304688 575.773438 388.109375 575.773438 380.921875 L 575.773438 374.332031 L 581.761719 374.332031 L 581.761719 367.59375 L 578.839844 367.59375 C 575.847656 367.59375 575.847656 367.59375 575.621094 364.375 L 575.398438 361.230469 L 571.503906 361.007812 C 567.835938 360.78125 567.535156 360.929688 567.535156 362.503906 Z M 567.535156 362.503906 " fill-opacity="1" fill-rule="nonzero"/><path fill="currentColor" d="M 744.96875 362.503906 C 744.96875 365.722656 744.070312 367.59375 742.648438 367.59375 C 741.453125 367.59375 741.226562 368.195312 741.226562 370.664062 C 741.226562 373.058594 741.527344 373.808594 742.722656 374.109375 C 744.070312 374.484375 744.222656 375.15625 744.222656 382.117188 C 744.222656 386.609375 744.597656 390.429688 745.195312 391.550781 C 746.691406 394.546875 751.035156 396.269531 755.453125 395.667969 L 759.195312 395.144531 L 759.195312 392.226562 C 759.195312 389.53125 759.046875 389.304688 757.097656 389.304688 C 753.730469 389.304688 753.207031 388.109375 753.207031 380.921875 L 753.207031 374.332031 L 759.195312 374.332031 L 759.195312 367.59375 L 756.273438 367.59375 C 753.28125 367.59375 753.28125 367.59375 753.054688 364.375 L 752.832031 361.230469 L 748.9375 361.007812 C 745.269531 360.78125 744.96875 360.929688 744.96875 362.503906 Z M 744.96875 362.503906 " fill-opacity="1" fill-rule="nonzero"/><path fill="currentColor" d="M 414.433594 367.59375 C 413.535156 367.894531 412.414062 368.71875 411.890625 369.390625 C 410.542969 370.964844 409.792969 370.890625 409.34375 369.09375 C 409.042969 367.894531 408.296875 367.59375 405.523438 367.59375 L 402.082031 367.59375 L 402.230469 381.21875 L 402.457031 394.921875 L 406.796875 395.144531 L 411.066406 395.371094 L 411.066406 385.710938 C 411.066406 375.007812 410.992188 375.15625 416.53125 375.082031 C 418.476562 375.082031 418.550781 374.933594 418.550781 371.414062 C 418.550781 368.792969 418.253906 367.59375 417.355469 367.296875 C 416.679688 367.070312 416.15625 366.847656 416.082031 366.921875 C 416.007812 366.921875 415.257812 367.21875 414.433594 367.59375 Z M 414.433594 367.59375 " fill-opacity="1" fill-rule="nonzero"/><path fill="currentColor" d="M 422.519531 367.667969 C 420.347656 368.269531 420.050781 368.71875 420.050781 370.964844 L 420.050781 373.585938 L 425.214844 373.585938 C 431.578125 373.585938 432.777344 374.035156 432.777344 376.277344 C 432.777344 377.925781 432.476562 378.074219 429.035156 378.074219 C 421.246094 378.074219 417.953125 381.371094 418.777344 388.332031 C 419.074219 390.953125 419.675781 392.300781 421.171875 393.574219 C 423.71875 395.820312 428.808594 395.894531 431.503906 393.796875 C 432.550781 392.972656 433.523438 392.300781 433.75 392.300781 C 433.972656 392.300781 434.273438 392.972656 434.5 393.796875 C 434.796875 394.996094 435.546875 395.296875 438.390625 395.296875 L 441.835938 395.296875 L 441.609375 383.691406 L 441.386719 372.085938 L 438.914062 369.691406 C 436.667969 367.371094 436.144531 367.21875 430.679688 367.070312 C 427.535156 366.996094 423.792969 367.21875 422.519531 367.667969 Z M 432.777344 385.863281 C 432.777344 387.507812 432.328125 388.558594 431.578125 388.855469 C 428.136719 390.203125 425.515625 388.332031 426.339844 385.1875 C 426.710938 383.617188 427.238281 383.316406 429.78125 383.316406 C 432.703125 383.316406 432.777344 383.390625 432.777344 385.863281 Z M 432.777344 385.863281 " fill-opacity="1" fill-rule="nonzero"/><path fill="currentColor" d="M 456.058594 368.417969 C 453.738281 369.765625 453.441406 369.839844 452.839844 368.792969 C 452.390625 367.96875 451.117188 367.59375 448.796875 367.59375 L 445.503906 367.59375 L 445.652344 381.21875 L 445.878906 394.921875 L 450.144531 395.144531 L 454.414062 395.371094 L 454.636719 385.039062 L 454.863281 374.707031 L 457.257812 374.484375 C 460.253906 374.183594 460.402344 374.707031 460.703125 386.3125 L 460.851562 394.921875 L 465.195312 395.144531 L 469.460938 395.371094 L 469.460938 385.414062 C 469.386719 374.035156 468.710938 369.992188 466.390625 368.117188 C 464.21875 366.320312 459.203125 366.472656 456.058594 368.417969 Z M 456.058594 368.417969 " fill-opacity="1" fill-rule="nonzero"/><path fill="currentColor" d="M 474.925781 367.59375 C 472.457031 368.644531 470.734375 371.789062 470.734375 375.457031 C 470.734375 380.320312 472.382812 382.269531 477.847656 383.914062 C 481.589844 384.964844 482.636719 385.5625 482.789062 386.910156 C 483.085938 388.78125 482.414062 388.933594 475.300781 388.632812 L 470.957031 388.40625 L 470.957031 391.101562 C 470.957031 394.398438 472.304688 395.21875 478.667969 395.820312 C 486.304688 396.492188 490.425781 393.949219 491.546875 387.808594 C 491.847656 386.011719 491.546875 384.363281 490.648438 382.644531 C 489.527344 380.472656 488.476562 379.796875 484.433594 378.449219 C 480.691406 377.175781 479.566406 376.503906 479.566406 375.382812 C 479.566406 374.109375 480.242188 373.957031 485.035156 373.734375 L 490.425781 373.507812 L 490.425781 371.039062 C 490.425781 368.867188 490.050781 368.34375 488.101562 367.667969 C 485.257812 366.695312 477.246094 366.621094 474.925781 367.59375 Z M 474.925781 367.59375 " fill-opacity="1" fill-rule="nonzero"/><path fill="currentColor" d="M 497.160156 367.296875 C 491.921875 368.269531 491.921875 368.269531 491.921875 371.039062 C 491.921875 372.6875 492.371094 373.808594 493.042969 374.035156 C 494.015625 374.40625 494.167969 376.804688 494.167969 389.382812 L 494.167969 404.28125 L 502.402344 404.28125 L 502.402344 398.964844 C 502.402344 394.171875 502.550781 393.722656 503.75 394.171875 C 506.296875 395.296875 509.964844 395.445312 512.285156 394.472656 C 515.652344 393.125 517.527344 388.40625 517.527344 381.21875 C 517.601562 370.589844 514.753906 367.519531 504.648438 367.144531 C 501.578125 367.070312 498.210938 367.144531 497.160156 367.296875 Z M 507.570312 374.632812 C 508.167969 375.304688 508.390625 378 508.242188 381.96875 L 508.019531 388.183594 L 505.246094 388.40625 L 502.402344 388.632812 L 502.402344 373.585938 L 504.574219 373.585938 C 505.773438 373.585938 507.121094 374.035156 507.570312 374.632812 Z M 507.570312 374.632812 " fill-opacity="1" fill-rule="nonzero"/><path fill="currentColor" d="M 524.789062 368.566406 C 521.417969 370.8125 520.144531 373.660156 519.847656 379.949219 C 519.472656 387.734375 521.195312 392.152344 525.609375 394.398438 C 528.382812 395.820312 529.804688 396.117188 533.398438 395.820312 C 541.558594 395.070312 543.953125 391.777344 543.953125 381.070312 C 543.953125 372.761719 542.832031 369.992188 538.789062 368.042969 C 534.894531 366.171875 527.933594 366.472656 524.789062 368.566406 Z M 534.894531 374.78125 C 535.71875 376.953125 535.417969 387.433594 534.445312 388.40625 C 533.921875 388.933594 532.796875 389.304688 531.824219 389.304688 C 529.578125 389.304688 528.605469 386.835938 528.605469 381.445312 C 528.605469 375.679688 529.578125 373.585938 532.273438 373.585938 C 533.546875 373.585938 534.59375 374.035156 534.894531 374.78125 Z M 534.894531 374.78125 " fill-opacity="1" fill-rule="nonzero"/><path fill="currentColor" d="M 558.925781 367.59375 C 558.027344 367.894531 556.90625 368.71875 556.382812 369.390625 C 555.035156 370.964844 554.285156 370.890625 553.835938 369.09375 C 553.535156 367.894531 552.789062 367.59375 550.019531 367.59375 L 546.574219 367.59375 L 546.722656 381.21875 L 546.949219 394.921875 L 551.289062 395.144531 L 555.558594 395.371094 L 555.558594 385.710938 C 555.558594 375.007812 555.484375 375.15625 561.023438 375.082031 C 562.96875 375.082031 563.042969 374.933594 563.042969 371.414062 C 563.042969 368.792969 562.746094 367.59375 561.847656 367.296875 C 561.171875 367.070312 560.648438 366.847656 560.574219 366.921875 C 560.5 366.921875 559.75 367.21875 558.925781 367.59375 Z M 558.925781 367.59375 " fill-opacity="1" fill-rule="nonzero"/><path fill="currentColor" d="M 660.296875 368.566406 C 656.925781 370.8125 655.65625 373.660156 655.355469 379.949219 C 654.980469 387.734375 656.703125 392.152344 661.121094 394.398438 C 663.890625 395.820312 665.3125 396.117188 668.90625 395.820312 C 677.066406 395.070312 679.460938 391.777344 679.460938 381.070312 C 679.460938 372.761719 678.339844 369.992188 674.296875 368.042969 C 670.402344 366.171875 663.441406 366.472656 660.296875 368.566406 Z M 670.402344 374.78125 C 671.226562 376.953125 670.925781 387.433594 669.953125 388.40625 C 669.429688 388.933594 668.308594 389.304688 667.332031 389.304688 C 665.085938 389.304688 664.113281 386.835938 664.113281 381.445312 C 664.113281 375.679688 665.085938 373.585938 667.78125 373.585938 C 669.054688 373.585938 670.105469 374.035156 670.402344 374.78125 Z M 670.402344 374.78125 " fill-opacity="1" fill-rule="nonzero"/><path fill="currentColor" d="M 689.195312 367.894531 C 687.621094 368.492188 685.675781 369.765625 684.925781 370.738281 C 682.90625 373.359375 681.78125 379.5 682.457031 384.441406 C 683.128906 390.355469 685.75 393.050781 690.691406 393.050781 C 692.5625 393.050781 694.808594 392.675781 695.632812 392.300781 C 696.90625 391.550781 697.054688 391.777344 697.054688 394.023438 C 697.054688 397.617188 696.007812 398.289062 689.792969 398.289062 L 684.328125 398.289062 L 684.328125 400.460938 C 684.328125 403.832031 685.976562 404.652344 692.863281 404.652344 C 699.601562 404.652344 701.921875 403.679688 704.316406 400.011719 C 705.515625 398.289062 705.664062 396.269531 705.589844 386.160156 C 705.441406 376.503906 705.664062 374.332031 706.488281 374.332031 C 707.835938 374.332031 707.910156 369.542969 706.488281 368.417969 C 704.765625 366.996094 692.636719 366.621094 689.195312 367.894531 Z M 696.90625 380.097656 C 696.679688 386.460938 696.605469 386.6875 694.882812 386.910156 C 692.265625 387.285156 691.066406 385.261719 691.066406 380.246094 C 691.066406 375.457031 692.265625 373.585938 695.257812 373.585938 C 697.128906 373.585938 697.128906 373.585938 696.90625 380.097656 Z M 696.90625 380.097656 " fill-opacity="1" fill-rule="nonzero"/><path fill="currentColor" d="M 724.230469 367.59375 C 721.761719 368.566406 720.113281 371.636719 720.113281 375.382812 C 720.039062 380.246094 721.535156 382.042969 727.152344 383.839844 C 730.820312 384.964844 731.945312 385.636719 732.09375 386.910156 C 732.394531 388.78125 731.71875 388.933594 724.605469 388.632812 L 720.265625 388.40625 L 720.265625 391.101562 C 720.265625 394.398438 721.613281 395.21875 727.976562 395.820312 C 735.613281 396.492188 739.730469 393.949219 740.851562 387.808594 C 741.152344 386.011719 740.851562 384.363281 739.953125 382.644531 C 738.832031 380.472656 737.78125 379.796875 733.738281 378.449219 C 729.996094 377.175781 728.875 376.503906 728.875 375.382812 C 728.875 374.109375 729.546875 373.957031 734.339844 373.734375 L 739.730469 373.507812 L 739.730469 371.039062 C 739.730469 368.867188 739.355469 368.34375 737.410156 367.667969 C 734.5625 366.695312 726.554688 366.621094 724.230469 367.59375 Z M 724.230469 367.59375 " fill-opacity="1" fill-rule="nonzero"/><path fill="currentColor" d="M 778.660156 367.820312 C 775.816406 369.242188 773.570312 373.210938 772.96875 377.925781 C 772.371094 382.941406 773.570312 389.605469 775.515625 392.226562 C 777.988281 395.519531 783.824219 396.792969 789.367188 395.21875 C 792.0625 394.472656 792.210938 394.320312 791.988281 391.703125 L 791.761719 388.933594 L 787.867188 388.707031 C 782.777344 388.40625 782.027344 387.359375 782.027344 380.921875 C 782.027344 374.558594 783.152344 373.359375 788.617188 373.734375 L 792.136719 373.957031 L 792.136719 371.261719 C 792.136719 369.09375 791.761719 368.417969 790.265625 367.746094 C 787.71875 366.546875 780.980469 366.621094 778.660156 367.820312 Z M 778.660156 367.820312 " fill-opacity="1" fill-rule="nonzero"/><path fill="currentColor" d="M 797.601562 367.667969 C 795.429688 368.269531 795.128906 368.71875 795.128906 370.964844 L 795.128906 373.585938 L 800.296875 373.585938 C 806.660156 373.585938 807.859375 374.035156 807.859375 376.277344 C 807.859375 377.925781 807.558594 378.074219 804.039062 378.074219 C 796.476562 378.074219 793.035156 381.519531 793.859375 388.332031 C 794.15625 390.953125 794.757812 392.300781 796.253906 393.574219 C 798.800781 395.820312 803.890625 395.894531 806.585938 393.796875 C 807.632812 392.972656 808.605469 392.300781 808.832031 392.300781 C 809.054688 392.300781 809.355469 392.972656 809.578125 393.796875 C 809.878906 394.996094 810.628906 395.296875 813.472656 395.296875 L 816.917969 395.296875 L 816.691406 383.691406 L 816.46875 372.085938 L 813.996094 369.691406 C 811.75 367.371094 811.226562 367.21875 805.761719 367.070312 C 802.617188 366.996094 798.875 367.21875 797.601562 367.667969 Z M 807.859375 385.863281 C 807.859375 387.507812 807.410156 388.558594 806.660156 388.855469 C 803.214844 390.203125 800.597656 388.332031 801.417969 385.1875 C 801.792969 383.617188 802.316406 383.316406 804.863281 383.316406 C 807.785156 383.316406 807.859375 383.390625 807.859375 385.863281 Z M 807.859375 385.863281 " fill-opacity="1" fill-rule="nonzero"/><path fill="currentColor" d="M 709.183594 381.21875 L 709.410156 394.921875 L 713.75 395.144531 L 718.019531 395.371094 L 717.867188 381.667969 L 717.644531 367.96875 L 713.300781 367.746094 L 709.035156 367.519531 Z M 709.183594 381.21875 " fill-opacity="1" fill-rule="nonzero"/><path fill="currentColor" d="M 761.589844 381.21875 L 761.816406 394.921875 L 766.15625 395.144531 L 770.425781 395.371094 L 770.273438 381.667969 L 770.050781 367.96875 L 765.707031 367.746094 L 761.441406 367.519531 Z M 761.589844 381.21875 " fill-opacity="1" fill-rule="nonzero"/><path fill="currentColor" d="M 307 408.398438 L 307 411.015625 L 898.445312 411.015625 L 898.445312 405.777344 L 307 405.777344 Z M 307 408.398438 " fill-opacity="1" fill-rule="nonzero"/></svg>