<?xml version="1.0" standalone="no"?>
<!DOCTYPE svg PUBLIC "-//W3C//DTD SVG 20010904//EN"
 "http://www.w3.org/TR/2001/REC-SVG-20010904/DTD/svg10.dtd">
<svg version="1.0" xmlns="http://www.w3.org/2000/svg"
 width="1200.000000pt" height="748.000000pt" viewBox="0 0 1200.000000 748.000000"
 preserveAspectRatio="xMidYMid meet">

<g transform="translate(0.000000,748.000000) scale(0.100000,-0.100000)"
fill="#F8F8FF" stroke="none">
<path d="M1895 6770 c-897 -102 -1631 -855 -1829 -1877 -40 -208 -50 -315 -50
-548 0 -233 10 -340 50 -548 238 -1231 1245 -2041 2309 -1857 783 136 1438
802 1665 1695 56 219 99 536 92 667 l-4 56 -124 43 c-68 23 -122 44 -120 46 2
2 57 -3 122 -11 65 -9 179 -16 254 -15 l135 1 -65 14 c-36 8 -97 21 -137 29
l-72 16 -3 72 -3 72 -112 39 c-62 22 -111 41 -109 43 2 2 68 -3 147 -11 79 -8
198 -17 264 -21 66 -3 147 -8 180 -10 53 -4 42 0 -100 44 -88 26 -186 56 -217
65 -52 15 -58 19 -58 44 0 15 -4 32 -8 38 -4 6 -60 30 -125 53 -65 24 -116 45
-115 47 2 2 165 -17 363 -41 197 -25 360 -43 361 -42 1 1 -178 65 -399 141
-221 77 -516 181 -656 232 l-253 92 -765 -53 c-421 -30 -766 -55 -768 -57 -1
-2 8 -75 21 -163 13 -88 24 -166 24 -172 0 -10 113 -13 533 -13 l534 0 22 -97
c14 -61 43 -297 77 -628 30 -291 54 -533 54 -537 0 -12 13 -9 32 6 15 11 31
125 103 761 47 411 85 757 85 768 0 11 2 18 5 15 4 -3 -5 -152 -20 -331 -14
-180 -25 -337 -25 -351 0 -23 9 -26 215 -77 118 -29 212 -55 210 -57 -2 -2
-99 1 -215 8 -116 7 -213 11 -215 8 -3 -2 -9 -63 -15 -134 -5 -71 -12 -151
-15 -178 l-6 -48 210 3 c115 2 204 1 198 -2 -7 -4 -73 -19 -147 -34 -74 -15
-165 -33 -201 -41 l-66 -15 -13 -180 c-7 -99 -11 -181 -9 -183 2 -2 96 30 208
71 112 40 205 72 207 70 7 -6 -64 -184 -110 -274 -100 -200 -200 -339 -351
-488 -222 -219 -489 -360 -779 -410 -186 -32 -428 -15 -616 41 -742 225 -1246
1086 -1159 1980 46 472 226 877 528 1188 225 230 473 371 766 432 132 28 415
26 540 -4 222 -53 411 -142 582 -276 l73 -57 330 3 c182 1 336 5 342 9 23 15
-174 262 -316 397 -291 274 -630 449 -996 513 -133 23 -359 32 -475 19z"/>
<path d="M4991 4950 c-87 -18 -175 -91 -222 -182 -12 -24 -53 -117 -90 -208
l-67 -165 -104 -7 c-154 -9 -222 -31 -286 -92 -44 -40 -61 -75 -72 -140 -11
-69 3 -133 38 -170 34 -36 59 -46 153 -60 l76 -11 -84 -205 c-47 -113 -118
-285 -158 -383 -41 -98 -79 -205 -85 -238 -24 -133 33 -246 150 -298 72 -32
160 -41 395 -41 258 0 327 9 415 53 77 38 115 87 132 169 21 103 -26 187 -123
218 -26 8 -115 16 -215 19 l-172 6 143 350 143 350 134 6 c73 4 134 6 134 5 1
0 -12 -35 -28 -76 -42 -104 -48 -185 -18 -239 29 -51 80 -87 145 -101 63 -14
112 -6 168 30 68 43 105 103 187 303 l32 77 115 0 115 0 -54 -62 c-148 -170
-237 -319 -263 -445 -68 -319 102 -607 385 -652 84 -14 526 -14 609 0 124 20
210 77 245 161 l16 37 52 -55 c59 -63 108 -94 194 -125 50 -18 88 -22 244 -26
245 -7 316 11 443 109 l37 30 45 -50 c73 -81 99 -87 360 -87 184 0 231 3 288
19 60 16 70 17 85 3 65 -57 185 -69 280 -28 62 28 145 113 181 187 14 27 91
210 171 406 81 196 162 382 181 414 48 80 119 150 181 179 141 66 295 -4 273
-123 -4 -21 -63 -176 -132 -346 -68 -170 -130 -336 -138 -371 -23 -113 4 -199
87 -269 75 -65 102 -69 406 -74 284 -4 382 4 455 36 39 17 42 17 78 -1 66 -32
159 -39 473 -35 292 5 304 6 391 32 128 39 207 86 301 180 131 132 182 266
171 455 -9 172 -60 289 -222 516 -127 177 -139 197 -164 272 -24 71 -26 123
-9 238 11 78 11 83 -13 125 -76 138 -258 142 -374 8 -35 -40 -377 -715 -404
-797 -16 -49 -14 -128 5 -168 23 -48 95 -99 158 -114 136 -30 251 50 326 228
15 35 29 66 33 69 10 10 134 -251 148 -310 10 -44 10 -68 1 -107 -17 -70 -43
-103 -110 -136 -56 -28 -60 -28 -302 -34 -239 -6 -309 -16 -359 -48 -9 -6 -27
-3 -51 10 -54 28 -136 39 -297 39 -79 0 -143 3 -143 8 0 4 56 146 125 315 133
331 161 425 150 517 -23 187 -171 330 -374 361 -152 23 -329 -27 -482 -136
l-46 -33 -34 46 c-49 66 -113 97 -203 96 -39 0 -88 -6 -110 -13 -41 -14 -103
-65 -137 -113 -12 -16 -117 -263 -234 -549 -118 -287 -216 -523 -218 -525 -2
-3 -17 1 -33 7 -16 7 -106 14 -202 17 -122 3 -172 8 -169 16 279 687 349 863
359 906 22 94 -15 178 -100 227 -39 23 -58 27 -117 27 -92 0 -171 -35 -237
-105 l-47 -50 -23 32 c-36 49 -126 108 -203 132 -97 30 -258 30 -368 -1 -317
-89 -608 -403 -705 -760 -23 -87 -26 -116 -26 -273 l-1 -176 -30 10 c-16 5
-137 12 -267 16 -218 6 -239 8 -264 27 -57 42 -69 69 -69 152 1 66 5 85 32
137 46 88 114 177 225 291 l97 100 85 12 c106 14 176 43 220 92 41 45 56 93
56 173 0 68 -17 107 -62 140 -65 48 -82 50 -475 56 -312 5 -375 8 -387 21 -9
8 -26 52 -39 98 -37 125 -84 166 -197 166 -75 0 -112 -16 -165 -71 -33 -34
-82 -123 -119 -215 l-14 -36 -42 14 c-23 8 -81 17 -129 21 l-88 6 53 111 c80
168 98 252 69 324 -42 98 -152 147 -274 122z m2868 -993 c60 -40 78 -83 64
-150 -14 -66 -173 -456 -207 -507 -15 -23 -45 -48 -77 -64 -46 -23 -65 -26
-149 -26 -84 0 -101 3 -130 23 -50 33 -69 65 -81 134 -27 152 47 345 187 489
98 101 172 136 280 131 58 -2 78 -7 113 -30z"/>
<path d="M1397 4769 c-95 -23 -170 -89 -214 -187 -30 -69 -86 -295 -113 -462
-17 -109 -39 -345 -40 -435 0 -24 -7 -33 -33 -45 l-32 -15 0 -117 c0 -102 3
-120 21 -144 27 -37 75 -60 162 -79 180 -37 298 -47 654 -52 334 -5 415 -1
504 23 18 5 22 0 27 -34 13 -75 75 -124 182 -140 154 -25 236 42 253 207 l7
73 89 36 88 35 -6 126 c-23 441 -99 1003 -149 1100 -19 38 -34 52 -91 81 l-69
35 -601 2 c-332 1 -618 -3 -639 -8z m123 -286 l0 -218 -101 -59 c-55 -32 -98
-60 -97 -61 2 -1 159 -6 350 -10 l347 -7 12 46 c11 43 14 46 73 68 l61 24 3
56 3 56 -47 16 c-26 9 -51 16 -56 16 -4 0 -24 -31 -43 -70 l-35 -70 -59 0 -60
0 -31 55 -31 55 -77 0 c-68 0 -79 -3 -103 -26 l-28 -26 -5 33 c-3 19 -7 84
-11 144 -3 61 -8 129 -11 153 l-7 42 294 0 c307 -1 314 -2 336 -45 6 -11 14
-113 17 -227 l7 -208 -64 0 -63 0 -23 -65 c-18 -49 -28 -65 -42 -65 -69 0
-876 31 -885 34 -28 10 45 347 103 478 37 83 64 98 181 98 l92 0 0 -217z
m1014 192 c68 -8 102 -34 110 -86 7 -45 12 -329 6 -329 -3 0 -32 -4 -64 -10
-66 -11 -87 -26 -143 -107 -33 -48 -40 -53 -75 -53 l-38 0 0 259 0 259 26 31
c25 30 75 52 104 46 8 -2 41 -6 74 -10z m-180 -736 l-7 -71 49 6 c27 3 108 10
179 16 72 6 143 13 159 15 16 3 27 3 24 -1 -3 -3 -97 -27 -209 -54 -111 -27
-206 -55 -209 -61 -4 -6 -13 -67 -20 -135 -7 -69 -15 -122 -17 -120 -5 5 16
443 23 464 2 6 11 12 19 12 14 0 15 -10 9 -71z m-1131 -107 c23 -21 25 -127 1
-136 -28 -11 -140 -6 -152 6 -7 7 -12 42 -12 86 l0 73 73 -7 c41 -4 79 -13 90
-22z m307 -17 c113 -8 211 -15 218 -15 6 0 12 -10 12 -21 0 -21 -2 -21 -142
-15 -79 3 -185 9 -235 12 -90 6 -93 7 -93 30 0 28 -21 28 240 9z m593 -10 c17
-24 17 -25 -10 -31 -87 -19 -88 -22 -14 -23 81 -1 80 0 51 -76 l-10 -25 -145
0 c-82 0 -155 5 -166 10 -16 9 -19 22 -19 77 0 90 4 92 165 92 126 0 131 0
148 -24z m-593 -75 c220 -14 230 -16 230 -42 0 -19 -4 -20 -72 -14 -40 3 -146
8 -235 12 -163 7 -163 7 -163 30 0 29 0 29 240 14z m1168 -66 c23 -16 62 -83
62 -106 0 -6 -13 9 -30 35 -37 58 -66 71 -125 56 -62 -16 -117 -66 -149 -138
-15 -34 -29 -61 -30 -61 -10 0 17 97 33 124 56 89 176 135 239 90z m-1611 -73
c101 -19 326 -41 588 -56 355 -20 371 -25 75 -19 -435 8 -665 29 -737 68 l-28
15 26 1 c15 0 48 -4 76 -9z m1620 -68 c15 -23 18 -50 18 -159 0 -119 -2 -135
-21 -161 -53 -71 -109 -6 -108 127 0 125 35 220 79 220 8 0 23 -12 32 -27z
m63 -33 c0 -11 -2 -20 -4 -20 -2 0 -6 9 -9 20 -3 11 -1 20 4 20 5 0 9 -9 9
-20z"/>
<path d="M2410 4380 c0 -36 -2 -40 -25 -40 -25 0 -25 0 -25 -95 0 -93 1 -95
23 -95 17 0 34 15 63 58 l39 57 63 3 62 3 0 34 c0 32 -3 35 -29 35 -25 0 -29
4 -35 40 l-6 40 -65 0 -65 0 0 -40z"/>
<path d="M1160 3233 c0 -20 42 -63 84 -88 94 -55 212 -54 256 2 33 42 23 67
-30 74 -95 14 -310 22 -310 12z"/>
<path d="M10650 2705 c0 -42 21 -74 57 -86 72 -23 143 18 143 82 0 26 -4 29
-30 29 -23 0 -33 -6 -40 -25 -6 -15 -17 -25 -30 -25 -13 0 -24 10 -30 25 -7
19 -17 25 -40 25 -25 0 -30 -4 -30 -25z"/>
<path d="M9466 2704 c-22 -21 -20 -50 4 -74 22 -22 46 -25 83 -11 33 13 43 46
23 76 -13 20 -25 25 -56 25 -22 0 -45 -7 -54 -16z"/>
<path d="M10166 2704 c-22 -21 -20 -50 4 -74 22 -22 46 -25 83 -11 33 13 43
46 23 76 -13 20 -25 25 -56 25 -22 0 -45 -7 -54 -16z"/>
<path d="M7995 2696 c-72 -32 -92 -100 -52 -179 l24 -47 -28 -17 c-36 -22 -59
-69 -59 -123 0 -90 52 -134 160 -135 51 0 74 6 108 25 l42 24 16 -22 c12 -18
25 -22 65 -22 27 0 49 3 49 8 0 4 -13 29 -29 57 l-28 49 18 41 c10 22 19 52
19 68 0 25 -3 27 -44 27 -41 0 -44 -2 -50 -32 l-6 -32 -37 36 -37 37 27 21
c59 47 73 134 30 182 -40 45 -127 61 -188 34z m105 -86 c24 -46 -28 -114 -57
-74 -17 23 -17 81 0 87 26 11 47 6 57 -13z m-18 -247 c26 -26 48 -50 48 -54 0
-9 -57 -29 -81 -29 -26 0 -59 35 -59 63 0 22 25 67 38 67 3 0 28 -21 54 -47z"/>
<path d="M4982 2653 l3 -48 57 -3 58 -3 2 -197 3 -197 58 -3 57 -3 0 201 0
200 61 0 60 0 -3 48 -3 47 -178 3 -178 2 3 -47z"/>
<path d="M8450 2462 c0 -172 3 -241 12 -250 8 -8 55 -12 145 -12 l133 0 0 50
0 50 -80 0 -80 0 -2 198 -3 197 -62 3 -63 3 0 -239z"/>
<path d="M7570 2638 c0 -43 -12 -68 -31 -68 -16 0 -19 -8 -19 -41 0 -32 4 -42
20 -46 18 -5 20 -14 20 -107 0 -60 5 -111 13 -126 20 -40 78 -63 137 -55 l50
7 0 39 c0 36 -2 39 -28 39 -45 0 -52 16 -52 112 l0 88 40 0 40 0 0 45 0 45
-39 0 c-40 0 -40 0 -43 43 l-3 42 -52 3 c-49 3 -53 1 -53 -20z"/>
<path d="M9940 2638 c0 -43 -12 -68 -31 -68 -16 0 -19 -8 -19 -41 0 -32 4 -42
20 -46 18 -5 20 -14 20 -107 0 -60 5 -111 13 -126 20 -40 78 -63 137 -55 l50
7 0 39 c0 36 -2 39 -28 39 -45 0 -52 16 -52 112 l0 88 40 0 40 0 0 45 0 45
-39 0 c-40 0 -40 0 -43 43 l-3 42 -52 3 c-49 3 -53 1 -53 -20z"/>
<path d="M5525 2570 c-12 -4 -27 -15 -34 -24 -18 -21 -28 -20 -34 4 -4 16 -14
20 -51 20 l-46 0 2 -182 3 -183 58 -3 57 -3 0 129 c0 143 -1 141 73 142 26 0
27 2 27 49 0 35 -4 51 -16 55 -9 3 -16 6 -17 5 -1 0 -11 -4 -22 -9z"/>
<path d="M5633 2569 c-29 -8 -33 -14 -33 -44 l0 -35 69 0 c85 0 101 -6 101
-36 0 -22 -4 -24 -50 -24 -104 0 -148 -44 -137 -137 4 -35 12 -53 32 -70 34
-30 102 -31 138 -3 14 11 27 20 30 20 3 0 7 -9 10 -20 4 -16 14 -20 52 -20
l46 0 -3 155 -3 155 -33 32 c-30 31 -37 33 -110 35 -42 1 -92 -2 -109 -8z
m137 -243 c0 -22 -6 -36 -16 -40 -46 -18 -81 7 -70 49 5 21 12 25 46 25 39 0
40 -1 40 -34z"/>
<path d="M6081 2559 c-31 -18 -35 -19 -43 -5 -6 11 -23 16 -54 16 l-44 0 2
-182 3 -183 57 -3 57 -3 3 138 3 138 32 3 c40 4 42 -3 46 -158 l2 -115 58 -3
57 -3 0 133 c-1 152 -10 206 -41 231 -29 24 -96 22 -138 -4z"/>
<path d="M6333 2570 c-33 -14 -56 -56 -56 -105 0 -65 22 -91 95 -113 50 -14
64 -22 66 -40 4 -25 -5 -27 -100 -23 l-58 3 0 -36 c0 -44 18 -55 103 -63 102
-9 157 25 172 107 4 24 0 46 -12 69 -15 29 -29 38 -83 56 -50 17 -65 26 -65
41 0 17 9 19 73 22 l72 3 0 33 c0 29 -5 36 -31 45 -38 13 -145 14 -176 1z"/>
<path d="M6630 2574 c-70 -13 -70 -13 -70 -50 0 -22 6 -37 15 -40 13 -5 15
-37 15 -205 l0 -199 55 0 55 0 0 71 c0 64 2 70 18 64 34 -15 83 -17 114 -4 45
18 70 81 70 177 1 142 -37 183 -172 188 -41 1 -86 0 -100 -2z m139 -98 c8 -9
11 -45 9 -98 l-3 -83 -37 -3 -38 -3 0 100 0 101 29 0 c16 0 34 -6 40 -14z"/>
<path d="M6999 2557 c-45 -30 -62 -68 -66 -152 -5 -104 18 -163 77 -193 37
-19 56 -23 104 -19 109 10 141 54 141 197 0 111 -15 148 -69 174 -52 25 -145
21 -187 -7z m135 -83 c11 -29 7 -169 -6 -182 -7 -7 -22 -12 -35 -12 -30 0 -43
33 -43 105 0 77 13 105 49 105 17 0 31 -6 35 -16z"/>
<path d="M7455 2570 c-12 -4 -27 -15 -34 -24 -18 -21 -28 -20 -34 4 -4 16 -14
20 -51 20 l-46 0 2 -182 3 -183 58 -3 57 -3 0 129 c0 143 -1 141 73 142 26 0
27 2 27 49 0 35 -4 51 -16 55 -9 3 -16 6 -17 5 -1 0 -11 -4 -22 -9z"/>
<path d="M8809 2557 c-45 -30 -62 -68 -66 -152 -5 -104 18 -163 77 -193 37
-19 56 -23 104 -19 109 10 141 54 141 197 0 111 -15 148 -69 174 -52 25 -145
21 -187 -7z m135 -83 c11 -29 7 -169 -6 -182 -7 -7 -22 -12 -35 -12 -30 0 -43
33 -43 105 0 77 13 105 49 105 17 0 31 -6 35 -16z"/>
<path d="M9195 2566 c-21 -8 -47 -25 -57 -38 -27 -35 -42 -117 -33 -183 9 -79
44 -115 110 -115 25 0 55 5 66 10 17 10 19 7 19 -23 0 -48 -14 -57 -97 -57
l-73 0 0 -29 c0 -45 22 -56 114 -56 90 0 121 13 153 62 16 23 18 50 17 185 -2
129 1 158 12 158 18 0 19 64 0 79 -23 19 -185 24 -231 7z m103 -163 c-3 -85
-4 -88 -27 -91 -35 -5 -51 22 -51 89 0 64 16 89 56 89 25 0 25 0 22 -87z"/>
<path d="M9663 2570 c-33 -13 -55 -54 -55 -104 -1 -65 19 -89 94 -113 49 -15
64 -24 66 -41 4 -25 -5 -27 -100 -23 l-58 3 0 -36 c0 -44 18 -55 103 -63 102
-9 157 25 172 107 4 24 0 46 -12 69 -15 29 -29 38 -83 56 -50 17 -65 26 -65
41 0 17 9 19 73 22 l72 3 0 33 c0 29 -5 36 -31 45 -38 13 -145 14 -176 1z"/>
<path d="M10390 2567 c-38 -19 -68 -72 -76 -135 -8 -67 8 -156 34 -191 33 -44
111 -61 185 -40 36 10 38 12 35 47 l-3 37 -52 3 c-68 4 -78 18 -78 104 0 85
15 101 88 96 l47 -3 0 36 c0 29 -5 38 -25 47 -34 16 -124 15 -155 -1z"/>
<path d="M10643 2569 c-29 -8 -33 -14 -33 -44 l0 -35 69 0 c85 0 101 -6 101
-36 0 -22 -4 -24 -51 -24 -101 0 -147 -46 -136 -137 4 -35 12 -53 32 -70 34
-30 102 -31 138 -3 14 11 27 20 30 20 3 0 7 -9 10 -20 4 -16 14 -20 52 -20
l46 0 -3 155 -3 155 -33 32 c-30 31 -37 33 -110 35 -42 1 -92 -2 -109 -8z
m137 -243 c0 -22 -6 -36 -16 -40 -46 -18 -81 7 -70 49 5 21 12 25 46 25 39 0
40 -1 40 -34z"/>
<path d="M9462 2388 l3 -183 58 -3 57 -3 -2 183 -3 183 -58 3 -57 3 2 -183z"/>
<path d="M10162 2388 l3 -183 58 -3 57 -3 -2 183 -3 183 -58 3 -57 3 2 -183z"/>
<path d="M4090 2025 l0 -35 3950 0 3950 0 0 35 0 35 -3950 0 -3950 0 0 -35z"/>
</g>
</svg>
